# xmcd CD database file
#
# Track frame offsets:
#	150
#	35270
#	66021
#	94300
#	109151
#	131558
#	170259
#	200113
#	213789
#	237893
#
# Disc length: 3502 seconds
#
# Revision: 1
# Processed by: cddbd v1.5.2PL0 Copyright (c) Steve Scherf et al.
# Submitted via: CDex 1.70beta2
#
DISCID=880dac0a
DTITLE=Dizzy Gillespie - The Ultimate Jazz Archive Set 32
DYEAR=2005
DGENRE=Jazz
TTITLE0=Impromptu
TTITLE1=It S The Talk Of The Town
TTITLE2=I Let A Song Go Out Of My Heart
TTITLE3=Girl Of My Dream
TTITLE4=Exactly Like You
TTITLE5=Siboney
TTITLE6=It Dont Mean A Thing
TTITLE7=One Alone
TTITLE8=Sometimes I M Happy
TTITLE9=Pretty Eyed Baby
EXTD=YEAR: 2005
EXTT0=
EXTT1=
EXTT2=
EXTT3=
EXTT4=
EXTT5=
EXTT6=
EXTT7=
EXTT8=
EXTT9=
PLAYORDER=
